<?xml version="1.0" encoding="UTF-8" standalone="no"?>
<!-- Created with Inkscape (http://www.inkscape.org/) -->

<svg
   width="320"
   height="240"
   viewBox="0 0 320 240"
   version="1.1"
   id="svg1"
   xml:space="preserve"
   inkscape:version="1.4.4 (dcaf3e7d9e, 2026-05-05)"
   sodipodi:docname="arcadeplanet_btn.svg"
   inkscape:export-filename="btn.png"
   inkscape:export-xdpi="96"
   inkscape:export-ydpi="96"
   xmlns:inkscape="http://www.inkscape.org/namespaces/inkscape"
   xmlns:sodipodi="http://sodipodi.sourceforge.net/DTD/sodipodi-0.dtd"
   xmlns:xlink="http://www.w3.org/1999/xlink"
   xmlns="http://www.w3.org/2000/svg"
   xmlns:svg="http://www.w3.org/2000/svg"><sodipodi:namedview
     id="namedview1"
     pagecolor="#ffffff"
     bordercolor="#000000"
     borderopacity="0.25"
     inkscape:showpageshadow="2"
     inkscape:pageopacity="0.0"
     inkscape:pagecheckerboard="0"
     inkscape:deskcolor="#d1d1d1"
     inkscape:document-units="px"
     showguides="true"
     inkscape:zoom="0.93009496"
     inkscape:cx="-99.989791"
     inkscape:cy="176.32608"
     inkscape:window-width="1920"
     inkscape:window-height="978"
     inkscape:window-x="0"
     inkscape:window-y="0"
     inkscape:window-maximized="1"
     inkscape:current-layer="svg1"><sodipodi:guide
       position="694.96773,-200.53603"
       orientation="0,-1"
       id="guide18"
       inkscape:locked="false" /><sodipodi:guide
       position="1936.7348,13.06972"
       orientation="1,0"
       id="guide19"
       inkscape:locked="false" /><sodipodi:guide
       position="960,240"
       orientation="1,0"
       id="guide299"
       inkscape:locked="false" /><sodipodi:guide
       position="2460.4756,-200.49014"
       orientation="1,0"
       id="guide300"
       inkscape:locked="false" /><sodipodi:guide
       position="1890.3589,-200.49011"
       orientation="1,0"
       id="guide471"
       inkscape:locked="false" /><sodipodi:guide
       position="48.89942,-80.47928"
       orientation="0,-1"
       id="guide674"
       inkscape:locked="false" /><sodipodi:guide
       position="960,-778.2996"
       orientation="0,-1"
       id="guide1"
       inkscape:locked="false" /><sodipodi:guide
       position="313.79952,-799.66677"
       orientation="0,-1"
       id="guide3"
       inkscape:locked="false" /></sodipodi:namedview><defs
     id="defs1"><linearGradient
       id="linearGradient734"
       inkscape:collect="always"><stop
         style="stop-color:#ff5efc;stop-opacity:1;"
         offset="0"
         id="stop734" /><stop
         style="stop-color:#8c00bf;stop-opacity:1;"
         offset="1"
         id="stop735" /></linearGradient><linearGradient
       id="linearGradient671"
       inkscape:collect="always"><stop
         style="stop-color:#66008d;stop-opacity:1;"
         offset="0"
         id="stop671" /><stop
         style="stop-color:#00107f;stop-opacity:1;"
         offset="0.11540679"
         id="stop1" /><stop
         style="stop-color:#000000;stop-opacity:1;"
         offset="0.63629282"
         id="stop673" /></linearGradient><linearGradient
       inkscape:collect="always"
       xlink:href="#linearGradient671"
       id="linearGradient672"
       x1="-9.1603956"
       y1="440.53604"
       x2="-9.1603956"
       y2="990.44751"
       gradientUnits="userSpaceOnUse"
       gradientTransform="matrix(1,0,0,2.1577422,0,-1003.8468)" /><clipPath
       clipPathUnits="userSpaceOnUse"
       id="clipPath767"><rect
         style="opacity:1;fill:#cccccc;fill-opacity:1;stroke:none;stroke-width:4.03693;stroke-linecap:butt;stroke-linejoin:miter;stroke-dasharray:none;stroke-opacity:1;paint-order:fill markers stroke"
         id="rect768"
         width="54.262543"
         height="28.913927"
         x="1681.3853"
         y="1038.0223" /></clipPath><clipPath
       clipPathUnits="userSpaceOnUse"
       id="clipPath767-4"><rect
         style="opacity:1;fill:#cccccc;fill-opacity:1;stroke:none;stroke-width:4.03693;stroke-linecap:butt;stroke-linejoin:miter;stroke-dasharray:none;stroke-opacity:1;paint-order:fill markers stroke"
         id="rect768-8"
         width="54.262543"
         height="28.913927"
         x="1681.3853"
         y="1038.0223" /></clipPath><clipPath
       clipPathUnits="userSpaceOnUse"
       id="clipPath1"><rect
         style="fill:#cccccc;stroke-width:4;stroke-dasharray:none;paint-order:markers fill stroke"
         id="rect2"
         width="1920"
         height="1080"
         x="0"
         y="0" /></clipPath><linearGradient
       inkscape:collect="always"
       xlink:href="#linearGradient734"
       id="linearGradient735"
       x1="960"
       y1="440.53604"
       x2="960"
       y2="1039.6667"
       gradientUnits="userSpaceOnUse" /><filter
       inkscape:collect="always"
       style="color-interpolation-filters:sRGB"
       id="filter735"
       x="-0.0030384426"
       y="-0.02442759"
       width="1.0060769"
       height="1.0488552"><feGaussianBlur
         inkscape:collect="always"
         stdDeviation="4.4314163"
         id="feGaussianBlur735" /></filter></defs><g
     inkscape:label="Capa 1"
     inkscape:groupmode="layer"
     id="layer1"
     clip-path="url(#clipPath1)"
     transform="scale(0.16666667,0.22222222)"><rect
       style="display:inline;fill:url(#linearGradient672);fill-opacity:1;stroke:none;stroke-width:5.87513;stroke-linecap:butt;stroke-linejoin:miter;stroke-dasharray:none;stroke-opacity:1;paint-order:fill markers stroke"
       id="rect671"
       width="1943.9412"
       height="1186.5673"
       x="-7.2062855"
       y="-53.283611" /><g
       id="g735"
       style="display:inline"
       transform="matrix(2.5904918,0,0,1.9856402,-1526.8723,-929.57827)"><path
         id="path734"
         style="display:inline;opacity:0.78832;fill:none;stroke:url(#linearGradient735);stroke-width:8;stroke-dasharray:none;stroke-opacity:1;paint-order:markers fill stroke;filter:url(#filter735)"
         d="M -9.1604,1039.67 H 1936.73 M -9.1604,963.445 H 1936.73 M -9.1604,891.545 H 1936.73 M -9.1604,824.082 H 1936.73 M -9.1604,761.185 H 1936.73 M -9.1604,703.001 H 1936.73 M -9.1604,649.699 H 1936.73 M -9.1604,601.48 H 1936.73 M -9.1604,558.586 H 1936.73 M -9.1604,521.319 H 1936.73 M -9.1604,490.072 H 1936.73 M -9.1604,465.4 H 1936.73 M -9.1604,448.189 H 1936.73 M -9.1604,440.536 H 1936.73 m -1907.0889,0 L -1098.81,1039.67 M 122.677,440.536 -892.931,1039.67 M 215.713,440.536 -687.05,1039.67 M 308.749,440.536 -481.169,1039.67 M 401.785,440.536 -275.288,1039.67 M 494.821,440.536 -69.4062,1039.67 M 587.856,440.536 136.475,1039.67 M 680.892,440.536 342.356,1039.67 M 773.928,440.536 548.238,1039.67 M 866.964,440.536 754.119,1039.67 M 960,440.536 v 599.134 m 93.04,-599.134 112.84,599.134 m -19.81,-599.134 225.69,599.134 m -132.65,-599.134 338.53,599.134 m -245.5,-599.134 451.39,599.134 M 1425.18,440.536 1989.41,1039.67 M 1518.22,440.536 2195.29,1039.67 M 1611.25,440.536 2401.17,1039.67 M 1704.29,440.536 2607.05,1039.67 M 1797.32,440.536 2812.93,1039.67 M 1890.36,440.536 3018.81,1039.67" /><path
         id="path735"
         style="display:inline;opacity:0.759839;fill:none;stroke:#f7d5f9;stroke-width:2;stroke-dasharray:none;stroke-opacity:1;paint-order:markers fill stroke"
         d="M -9.1604,1039.67 H 1936.73 M -9.1604,963.445 H 1936.73 M -9.1604,891.545 H 1936.73 M -9.1604,824.082 H 1936.73 M -9.1604,761.185 H 1936.73 M -9.1604,703.001 H 1936.73 M -9.1604,649.699 H 1936.73 M -9.1604,601.48 H 1936.73 M -9.1604,558.586 H 1936.73 M -9.1604,521.319 H 1936.73 M -9.1604,490.072 H 1936.73 M -9.1604,465.4 H 1936.73 M -9.1604,448.189 H 1936.73 M -9.1604,440.536 H 1936.73 m -1907.0889,0 L -1098.81,1039.67 M 122.677,440.536 -892.931,1039.67 M 215.713,440.536 -687.05,1039.67 M 308.749,440.536 -481.169,1039.67 M 401.785,440.536 -275.288,1039.67 M 494.821,440.536 -69.4062,1039.67 M 587.856,440.536 136.475,1039.67 M 680.892,440.536 342.356,1039.67 M 773.928,440.536 548.238,1039.67 M 866.964,440.536 754.119,1039.67 M 960,440.536 v 599.134 m 93.04,-599.134 112.84,599.134 m -19.81,-599.134 225.69,599.134 m -132.65,-599.134 338.53,599.134 m -245.5,-599.134 451.39,599.134 M 1425.18,440.536 1989.41,1039.67 M 1518.22,440.536 2195.29,1039.67 M 1611.25,440.536 2401.17,1039.67 M 1704.29,440.536 2607.05,1039.67 M 1797.32,440.536 2812.93,1039.67 M 1890.36,440.536 3018.81,1039.67" /></g></g></svg>
